<svg id="Ebene_1" data-name="Ebene 1" xmlns="http://www.w3.org/2000/svg" xmlns:xlink="http://www.w3.org/1999/xlink" viewBox="0 0 208.71 204.61"><defs><style>.cls-1{fill:url(#Unbenannter_Verlauf_3);}.cls-2{fill:url(#Unbenannter_Verlauf_3-2);}.cls-3{fill:url(#Unbenannter_Verlauf_3-3);}.cls-4{fill:url(#Unbenannter_Verlauf_3-4);}.cls-5{fill:url(#Unbenannter_Verlauf_3-5);}</style><linearGradient id="Unbenannter_Verlauf_3" x1="38.48" y1="-41" x2="266.24" y2="174.77" gradientUnits="userSpaceOnUse"><stop offset="0" stop-color="#977e5e"/><stop offset="0.18" stop-color="#805f4f"/><stop offset="0.27" stop-color="#b18263"/><stop offset="0.35" stop-color="#d99f73"/><stop offset="0.53" stop-color="#c18e6e"/><stop offset="0.59" stop-color="#aa7b5a"/><stop offset="0.7" stop-color="#825a39"/><stop offset="0.77" stop-color="#aa805d"/><stop offset="0.85" stop-color="#dbae88"/><stop offset="1" stop-color="#ba886c"/></linearGradient><linearGradient id="Unbenannter_Verlauf_3-2" x1="2.53" y1="-3.05" x2="230.29" y2="212.72" xlink:href="#Unbenannter_Verlauf_3"/><linearGradient id="Unbenannter_Verlauf_3-3" x1="-6.88" y1="6.88" x2="220.88" y2="222.65" xlink:href="#Unbenannter_Verlauf_3"/><linearGradient id="Unbenannter_Verlauf_3-4" x1="-11.7" y1="11.97" x2="216.06" y2="227.74" xlink:href="#Unbenannter_Verlauf_3"/><linearGradient id="Unbenannter_Verlauf_3-5" x1="-42.1" y1="44.06" x2="185.66" y2="259.83" xlink:href="#Unbenannter_Verlauf_3"/></defs><path class="cls-1" d="M102.39,39.21h0a1.53,1.53,0,0,1-1.21-.6L87,20.35a1.55,1.55,0,0,1,0-1.94L101.34.61A1.21,1.21,0,0,1,102.56,0a1.57,1.57,0,0,1,1.21.57l14.65,17.8a1.55,1.55,0,0,1,0,2L103.6,38.64A1.56,1.56,0,0,1,102.39,39.21Zm-12.2-19.8,12.23,15.72L115.19,19.4,102.57,4.07Z"/><path class="cls-2" d="M102.86,111.25h0a1.18,1.18,0,0,1-1-.63L92.43,92.36a1.17,1.17,0,0,1,0-1.09l9.5-17.8a1.18,1.18,0,0,1,1-.62h0a1.18,1.18,0,0,1,1,.61l9.69,17.8a1.17,1.17,0,0,1,0,1.12l-9.8,18.25A1.15,1.15,0,0,1,102.86,111.25ZM94.8,91.83l8.08,15.73,8.45-15.73L103,76.5Z"/><path class="cls-3" d="M101.58,183.75h0a1.59,1.59,0,0,1-1.27-.67L49.52,109.87a1.55,1.55,0,0,1,0-1.79l51.39-71.35a2.06,2.06,0,0,1,1.27-.65,1.56,1.56,0,0,1,1.26.64l52.42,71.35a1.55,1.55,0,0,1,0,1.83l-53,73.2A1.57,1.57,0,0,1,101.58,183.75ZM52.72,109l48.88,70.48L152.67,109,102.2,40.3Z"/><path class="cls-4" d="M102.7,204.61c-47.38,0-85.93-37.8-85.93-84.26S55.32,36.08,102.7,36.08s85.94,37.8,85.94,84.27S150.09,204.61,102.7,204.61Zm0-165.4c-45.66,0-82.8,36.4-82.8,81.14S57,201.48,102.7,201.48s82.81-36.39,82.81-81.13S148.37,39.21,102.7,39.21Z"/><path class="cls-5" d="M1.17,186.58a1.17,1.17,0,0,1-.7-2.11l101.69-75.33a1.17,1.17,0,0,1,1.35,0l104.68,70.12a1.18,1.18,0,0,1,.47,1.3,1.19,1.19,0,0,1-1.1.85L1.2,186.58Zm101.72-75.07-98,72.63,199-5Z"/></svg>
